HIERARCHY
ROOT SimulationBone
{
	OFFSET 0.000000 0.000000 0.000000
	CHANNELS 6 Xposition Yposition Zposition Zrotation Yrotation Xrotation 
	JOINT Hips
	{
		OFFSET 0.000000 0.000000 0.000000
		CHANNELS 6 Xposition Yposition Zposition Zrotation Yrotation Xrotation 
		JOINT LeftUpLeg
		{
			OFFSET 0.103458 1.857829 10.548508
			CHANNELS 3 Zrotation Yrotation Xrotation
			JOINT LeftLeg
			{
				OFFSET 43.499996 -0.000038 0.000006
				CHANNELS 3 Zrotation Yrotation Xrotation
				JOINT LeftFoot
				{
					OFFSET 42.372200 0.000008 -0.000002
					CHANNELS 3 Zrotation Yrotation Xrotation
					JOINT LeftToe
					{
						OFFSET 17.299995 -0.000002 0.000004
						CHANNELS 3 Zrotation Yrotation Xrotation
						End Site
						{
							OFFSET 0.000000 0.000000 0.000000
						}
					}
				}
			}
		}
		JOINT RightUpLeg
		{
			OFFSET 0.103455 1.857822 -10.548502
			CHANNELS 3 Zrotation Yrotation Xrotation
			JOINT RightLeg
			{
				OFFSET 43.500038 -0.000023 0.000006
				CHANNELS 3 Zrotation Yrotation Xrotation
				JOINT RightFoot
				{
					OFFSET 42.372261 0.000000 0.000010
					CHANNELS 3 Zrotation Yrotation Xrotation
					JOINT RightToe
					{
						OFFSET 17.299995 -0.000005 0.000002
						CHANNELS 3 Zrotation Yrotation Xrotation
						End Site
						{
							OFFSET 0.000000 0.000000 0.000000
						}
					}
				}
			}
		}
		JOINT Spine
		{
			OFFSET 6.901965 -2.603733 -0.000004
			CHANNELS 3 Zrotation Yrotation Xrotation
			JOINT Spine1
			{
				OFFSET 12.588106 0.000003 0.000000
				CHANNELS 3 Zrotation Yrotation Xrotation
				JOINT Spine2
				{
					OFFSET 12.343201 0.000003 0.000003
					CHANNELS 3 Zrotation Yrotation Xrotation
					JOINT Neck
					{
						OFFSET 25.832893 -0.000008 0.000002
						CHANNELS 3 Zrotation Yrotation Xrotation
						JOINT Head
						{
							OFFSET 11.766605 0.000004 0.000000
							CHANNELS 3 Zrotation Yrotation Xrotation
							End Site
							{
								OFFSET 0.000000 0.000000 0.000000
							}
						}
					}
					JOINT LeftShoulder
					{
						OFFSET 19.745905 -1.480375 6.000105
						CHANNELS 3 Zrotation Yrotation Xrotation
						JOINT LeftArm
						{
							OFFSET 11.284126 -0.000015 -0.000029
							CHANNELS 3 Zrotation Yrotation Xrotation
							JOINT LeftForeArm
							{
								OFFSET 33.000050 0.000007 0.000040
								CHANNELS 3 Zrotation Yrotation Xrotation
								JOINT LeftHand
								{
									OFFSET 25.200010 0.000008 0.000004
									CHANNELS 3 Zrotation Yrotation Xrotation
									End Site
									{
										OFFSET 0.000000 0.000000 0.000000
									}
								}
							}
						}
					}
					JOINT RightShoulder
					{
						OFFSET 19.746092 -1.480381 -6.000073
						CHANNELS 3 Zrotation Yrotation Xrotation
						JOINT RightArm
						{
							OFFSET 11.284138 -0.000024 -0.000021
							CHANNELS 3 Zrotation Yrotation Xrotation
							JOINT RightForeArm
							{
								OFFSET 33.000099 0.000014 0.000014
								CHANNELS 3 Zrotation Yrotation Xrotation
								JOINT RightHand
								{
									OFFSET 25.199772 0.000145 0.000419
									CHANNELS 3 Zrotation Yrotation Xrotation
									End Site
									{
										OFFSET 0.000000 0.000000 0.000000
									}
								}
							}
						}
					}
				}
			}
		}
	}
}
MOTION
Frames: 14
Frame Time: 0.033333
98.901962 0.000000 153.569711 0.000000 259.552399 0.000000 -2.247641 91.180794 0.144672 86.593175 0.249603 -179.698468 169.755992 0.212919 167.507521 -23.723098 1.730464 -7.618263 86.119902 4.639704 -2.725329 21.454550 0.003083 -0.000001 167.106725 8.924512 -172.166161 -24.697684 -4.006641 5.593571 80.520281 -0.752189 13.126798 21.454558 -0.003111 -0.000018 5.605380 -0.231741 -0.418975 1.199607 -0.459446 -0.840185 0.881546 -0.464363 -0.837405 6.337023 8.561768 -3.707175 -25.118357 -1.453013 -1.818115 -126.938943 -82.383098 -55.232246 -10.056639 68.172132 46.688632 -42.213714 -20.978614 1.909551 6.813134 -7.297989 9.549189 -149.736120 80.646864 32.222982 11.294990 -68.628026 -20.924443 -31.520906 11.374101 -1.052080 5.419098 1.280103 -9.199789 
99.423413 0.000000 153.471135 0.000000 259.518202 0.000000 -2.047220 91.150429 0.269788 86.683517 0.274477 179.982139 169.834484 0.390310 167.343938 -23.840654 1.707009 -7.766239 86.296326 4.769207 -2.577411 21.454553 0.003092 -0.000000 166.846768 9.112006 -172.420025 -25.107290 -4.007225 5.510008 80.190239 -0.649864 13.149757 21.454558 -0.003118 -0.000017 5.628284 -0.209156 -0.463124 1.245423 -0.413650 -0.928344 0.927359 -0.419102 -0.925823 6.464655 8.936602 -3.421288 -25.226559 -1.809416 -1.304430 -128.487415 -82.491903 -53.662925 -15.057345 67.217401 44.848477 -43.095512 -20.880935 1.928472 6.910796 -6.964283 10.618430 -149.359913 80.522275 32.608378 10.912719 -68.118481 -20.920516 -31.604166 11.385911 -1.054532 5.827198 2.199567 -9.018129 
99.908563 0.000000 153.406711 0.000000 259.380603 0.000000 -1.891346 91.117592 0.359014 86.773382 0.296065 179.761590 169.911488 0.590502 167.159741 -23.943868 1.700288 -7.910038 86.465612 4.895086 -2.428055 21.454551 0.003094 0.000000 166.617861 9.322205 -172.720936 -25.454643 -3.952562 5.442067 79.891760 -0.573460 13.130235 21.454557 -0.003118 -0.000017 5.652465 -0.191859 -0.502917 1.293745 -0.378453 -1.007830 0.975688 -0.384399 -1.005528 6.585576 9.362916 -3.125926 -25.292766 -2.170347 -0.770252 -129.975208 -82.635023 -52.152801 -19.665216 66.144023 42.956395 -43.830263 -20.732554 1.940158 7.019256 -6.685397 11.660462 -149.136894 80.436078 32.837282 10.514917 -67.431336 -21.736003 -31.911139 11.565227 -1.072465 6.108061 3.037332 -9.019469 
100.357190 0.000000 153.375027 0.000000 259.144505 0.000000 -1.772610 91.093369 0.410682 86.870220 0.335970 179.639181 170.020825 0.793511 167.014381 -23.987455 1.682534 -8.074384 86.607775 5.034003 -2.281339 21.454550 0.003102 -0.000001 166.405524 9.507794 -173.057077 -25.777228 -3.910469 5.399837 79.537000 -0.507957 13.112563 21.454557 -0.003110 -0.000018 5.681538 -0.173068 -0.550258 1.351873 -0.340088 -1.102398 1.033841 -0.346592 -1.100325 6.696531 9.847373 -2.806403 -25.356543 -2.561138 -0.186881 -130.800909 -82.776367 -51.311325 -23.654152 64.989318 41.586286 -44.386763 -20.772661 1.959322 6.937471 -6.302278 12.174794 -148.908096 80.379305 33.071264 10.292571 -66.814024 -22.353946 -32.512489 11.767107 -1.098057 6.012578 3.582626 -9.107379 
100.769071 0.000000 153.374671 0.000000 258.814359 0.000000 -1.686968 91.062653 0.434783 86.975529 0.370571 179.596397 170.130750 1.020992 166.783398 -24.038511 1.726039 -8.207346 86.761455 5.150368 -2.133842 21.454555 0.003082 -0.000000 166.180675 9.683100 -173.411468 -26.126940 -3.891368 5.377906 79.204417 -0.460290 13.090358 21.454558 -0.003106 -0.000018 5.716622 -0.158306 -0.601202 1.422011 -0.309652 -1.204226 1.103988 -0.316780 -1.202322 6.834920 10.377373 -2.500663 -25.494625 -2.984317 0.403521 -131.424724 -82.900875 -50.674734 -26.703195 64.022027 40.297119 -44.785004 -20.969902 1.984344 6.797654 -5.602478 13.046607 -148.554866 80.311967 33.431867 10.163678 -66.328254 -22.498281 -33.322440 11.960518 -1.127842 5.799169 3.622273 -9.219721 
101.143983 0.000000 153.404230 0.000000 258.394209 0.000000 -1.632256 91.030869 0.443115 87.087935 0.424457 179.615731 170.246440 1.227210 166.415251 -24.091594 1.830724 -8.279960 86.923166 5.221033 -2.002927 21.454553 0.003089 0.000000 165.940593 9.827701 -173.892627 -26.493580 -3.804876 5.425466 78.846365 -0.480341 12.993094 21.454558 -0.003107 -0.000017 5.758529 -0.141470 -0.652815 1.505790 -0.274882 -1.307338 1.187793 -0.282627 -1.305644 6.960683 10.954630 -2.205186 -25.639183 -3.410475 0.994031 -131.652142 -82.976635 -50.440944 -28.798632 63.263835 38.891336 -45.327949 -21.112072 2.010247 7.140227 -4.991140 13.730477 -147.914795 80.191393 34.085335 9.901454 -66.072026 -22.013696 -34.161406 12.172269 -1.159940 5.566634 3.493172 -9.420548 
101.481703 0.000000 153.462294 0.000000 257.887745 0.000000 -1.608415 90.994659 0.449804 87.210132 0.497624 179.678251 170.373495 1.371598 166.016545 -24.159421 1.896159 -8.346941 87.101373 5.286261 -1.878665 21.454551 0.003096 -0.000001 165.657755 9.951800 -174.518478 -26.938213 -3.623282 5.504342 78.476647 -0.542057 12.825964 21.454555 -0.003111 -0.000017 5.805537 -0.121276 -0.705026 1.599647 -0.233282 -1.411616 1.281667 -0.241654 -1.410173 7.135441 11.575327 -1.923953 -25.822258 -3.859839 1.583723 -131.635722 -82.987536 -50.456851 -30.172412 62.666118 37.573622 -45.774569 -21.119490 2.024415 7.043909 -4.993932 13.909419 -147.933332 80.137633 34.068348 9.788691 -66.036120 -21.247373 -35.090483 12.412237 -1.196439 5.457541 3.628088 -9.430833 
101.782008 0.000000 153.547448 0.000000 257.298345 0.000000 -1.623196 90.946381 0.452892 87.306444 0.561173 179.764525 170.464077 1.496000 165.598210 -24.252217 1.940830 -8.431591 87.299148 5.359135 -1.774125 21.454553 0.003090 0.000000 165.229106 10.075104 -175.104166 -27.554814 -3.490642 5.467410 78.127727 -0.522338 12.663245 21.454562 -0.003105 -0.000017 5.849702 -0.105370 -0.750126 1.687885 -0.200279 -1.501647 1.369895 -0.209204 -1.500420 7.340228 12.179173 -1.675433 -26.033355 -4.275049 2.118763 -131.570754 -82.945783 -50.524726 -30.956292 62.231206 36.545139 -46.018304 -21.130426 2.032659 7.075799 -5.373243 13.374059 -148.247794 80.077186 33.751062 9.814710 -66.132357 -20.518255 -36.062033 12.726241 -1.239372 5.261571 4.071704 -9.639017 
102.044674 0.000000 153.658283 0.000000 256.629123 0.000000 -1.674165 90.878487 0.466580 87.375374 0.611838 179.910796 170.492259 1.598200 165.239816 -24.416038 1.951632 -8.557512 87.531285 5.453882 -1.700112 21.454551 0.003104 0.000001 164.581017 10.174703 -175.506915 -28.486547 -3.474681 5.363849 77.800267 -0.445484 12.540112 21.454558 -0.003103 -0.000017 5.894092 -0.087274 -0.792053 1.776463 -0.162874 -1.585326 1.458489 -0.172311 -1.584307 7.484046 12.637642 -1.481011 -26.213907 -4.555890 2.517895 -132.014784 -82.866116 -50.081187 -31.062485 61.975852 35.907865 -46.025144 -21.273200 2.042392 7.430010 -5.707112 12.401440 -148.215829 80.025215 33.785155 9.950773 -66.356162 -19.989966 -37.042302 13.067985 -1.285003 4.897697 4.479412 -9.603440 
102.269479 0.000000 153.793384 0.000000 255.882975 0.000000 -1.756268 90.800392 0.477872 87.419767 0.675231 -179.919796 170.470716 1.637304 164.640904 -24.642730 2.006913 -8.571423 87.806139 5.471011 -1.628709 21.454551 0.003082 -0.000002 163.692150 10.231507 -175.710127 -29.753083 -3.519717 5.304790 77.397532 -0.379738 12.453149 21.454558 -0.003113 -0.000017 5.936461 -0.067184 -0.823479 1.860942 -0.121652 -1.647885 1.542980 -0.131470 -1.647119 7.635758 13.196973 -1.370318 -26.425252 -4.779643 2.818954 -132.647820 -82.923851 -49.439013 -30.560346 62.013869 35.398695 -45.713162 -21.373528 2.039454 7.663967 -5.650968 11.216991 -148.395791 79.866918 33.607594 10.140262 -66.530318 -19.617162 -37.951451 13.299212 -1.322346 4.583225 4.584726 -9.398284 
102.456200 0.000000 153.951342 0.000000 255.062614 0.000000 -1.865487 90.753197 0.482977 87.434394 0.855110 -179.754091 170.442849 1.532199 163.869461 -24.831178 2.090049 -8.530593 88.069149 5.450536 -1.561290 21.454555 0.003085 0.000000 162.479040 10.078503 -175.522502 -31.484440 -3.663258 5.362343 76.674051 -0.344255 12.431066 21.454557 -0.003111 -0.000017 5.977179 -0.016438 -0.856218 1.941639 -0.019053 -1.712594 1.623700 -0.029265 -1.712448 7.911492 13.652054 -1.344146 -26.826770 -4.806093 2.917591 -132.904389 -82.997809 -49.176081 -29.666616 62.163307 35.384949 -45.142517 -21.313996 2.018036 8.023412 -5.838309 9.488350 -148.710294 79.728272 33.292528 10.234645 -66.699352 -19.197591 -38.726992 13.397110 -1.348182 4.429136 4.548351 -9.319250 
102.604614 0.000000 154.130742 0.000000 254.170611 0.000000 -1.959507 90.712173 0.515253 87.487399 1.159505 -179.605804 170.457138 1.245499 163.126460 -25.088478 2.129403 -8.550898 88.376255 5.462982 -1.541643 21.454550 0.003094 0.000001 161.017147 9.661409 -175.016084 -33.566811 -3.760409 5.966688 75.616082 -0.660095 12.444897 21.454560 -0.003106 -0.000018 6.035210 0.076373 -0.901845 2.056235 0.168203 -1.802239 1.738323 0.157464 -1.803207 8.032970 13.872206 -1.366940 -27.122960 -4.615282 2.839399 -132.269728 -82.872966 -49.823378 -28.483723 62.386982 35.823284 -44.286499 -21.060417 1.975407 8.323817 -6.263072 7.808459 -149.107578 79.752028 32.888286 10.184037 -66.930895 -18.818954 -39.247315 13.422448 -1.363122 4.435004 4.522324 -9.495059 
102.714497 0.000000 154.330175 0.000000 253.209433 0.000000 -2.029859 90.577118 0.517012 87.552699 1.154226 -179.556293 170.465881 1.291505 162.251977 -25.455330 2.267584 -8.650201 88.757885 5.508622 -1.622253 21.454555 0.003111 0.000003 159.284588 9.642304 -173.548796 -36.145634 -3.802520 6.883186 75.141322 -1.193063 12.675699 21.454560 -0.003112 -0.000020 6.091463 0.094771 -0.927207 2.168395 0.206335 -1.852549 1.850474 0.195291 -1.853751 8.072606 14.151707 -1.532695 -27.364615 -4.458050 2.640831 -131.315455 -82.834670 -50.788730 -26.956122 62.615828 36.788884 -43.215898 -20.687595 1.919202 8.731242 -6.356201 6.173103 -149.381401 79.805727 32.608488 10.015224 -67.239647 -18.867573 -39.248296 13.585485 -1.373788 4.513691 4.492118 -9.374441 
102.785627 0.000000 154.548226 0.000000 252.181469 0.000000 -2.108910 90.451477 0.459399 87.528437 1.028624 -179.571110 170.488652 1.502107 161.313837 -25.634786 2.410692 -8.795374 89.073658 5.587355 -1.704662 21.454551 0.003087 -0.000001 157.597203 9.312494 -171.086007 -38.400246 -4.017326 8.642629 75.407563 -2.526580 12.534874 21.454558 -0.003113 -0.000017 6.119297 0.069526 -0.923774 2.224481 0.156244 -1.846071 1.906563 0.145230 -1.846988 8.055118 14.525516 -1.893226 -27.507984 -4.351814 2.275606 -130.615115 -82.975016 -51.487510 -25.087997 62.761932 38.431661 -42.029986 -20.228413 1.854942 9.509419 -6.017841 4.546901 -149.701969 79.662463 32.287206 10.027384 -67.419609 -19.071309 -39.087769 13.603304 -1.370839 4.635638 4.234405 -9.218976 
